<?xml version="1.0" encoding="utf-8"?>
<!-- Generator: Adobe Illustrator 15.0.0, SVG Export Plug-In . SVG Version: 6.00 Build 0)  -->
<!DOCTYPE svg PUBLIC "-//W3C//DTD SVG 1.1//EN" "http://www.w3.org/Graphics/SVG/1.1/DTD/svg11.dtd">
<svg version="1.1" class="bird" xmlns="http://www.w3.org/2000/svg" xmlns:xlink="http://www.w3.org/1999/xlink" x="0px" y="0px"
	 width="300px" height="300px" viewBox="0 0 300 300" enable-background="new 0 0 300 300" xml:space="preserve">
<g>
	<defs>
		<rect id="SVGID_1_" width="300" height="300"/>
	</defs>
	<clipPath id="SVGID_2_">
		<use xlink:href="#SVGID_1_"  overflow="visible"/>
	</clipPath>
	<path clip-path="url(#SVGID_2_)" d="M87.17,50.53c3.264,7.358,5.469,15.267,6.461,23.566c-5.078-8.47-13.119-14.977-22.701-18.041
		c4.702,7.929,8.117,16.71,9.957,26.057c-7.975,7.484-12.957,18.148-12.957,29.95c0,22.66,18.371,41.032,41.031,41.032
		c3.216,0,6.348-0.361,9.351-1.062c-1.711,34.102-18.047,64.338-42.872,84.574c6.06,3.533,13.108,5.557,20.628,5.557
		c14.236,0,26.795-7.244,34.154-18.254c-0.214,6.725-2.059,13.053-5.133,18.584c0.172,0.004,0.343,0.004,0.517,0.004
		c19.88,0,36.462-14.145,40.234-32.914c0.938,3.443,1.439,7.068,1.439,10.811c0,2.643-0.258,5.213-0.736,7.719
		c16.301-5.221,28.164-20.375,28.494-38.33c11.006,14.043,17.566,31.736,17.566,50.961c0,3.311-0.195,6.578-0.574,9.788
		c11.643-18.159,18.436-39.728,18.436-62.899c0-75.473-62.524-116.746-116.746-116.746c-1.779,0-3.549,0.041-5.309,0.12
		C102.625,62.987,95.399,56.031,87.17,50.53"/>
	<path clip-path="url(#SVGID_2_)" fill="#F0E4D8" d="M108.807,151.694c3.316,0,6.534-0.414,9.611-1.184
		c0.11-2.064,0.169-4.142,0.169-6.233c0-11.009-0.946-21.847-4.427-31.74c-2.912-0.046-5.848,0.017-8.803,0.195
		c-12.416,0.744-24.251,3.435-35.237,7.745C73.992,139.423,91.575,151.694,108.807,151.694"/>
	<path clip-path="url(#SVGID_2_)" fill="#F0E4D8" d="M77.021,104.808c0,0,2.429,0.03,5.295-0.981
		c2.866-1.011,4.554-2.178,4.554-2.178s-0.652,2.995-3.063,4.299C81,107.467,77.021,104.808,77.021,104.808"/>
	<path clip-path="url(#SVGID_2_)" fill="#FFFFFF" d="M72.227,128.571c6.758-3.083,13.668-2.706,16.825,1.803
		c-4.66-1.972-9.669-2.122-15.543,0.914L72.227,128.571z"/>
	<path clip-path="url(#SVGID_2_)" d="M73.509,131.787c-0.054,0-0.108-0.009-0.16-0.026c-0.129-0.044-0.234-0.138-0.292-0.26
		l-1.283-2.717c-0.057-0.121-0.063-0.26-0.017-0.385c0.046-0.126,0.14-0.228,0.262-0.284c2.94-1.34,5.933-2.049,8.658-2.049
		c3.849,0,6.969,1.428,8.784,4.021c0.128,0.182,0.12,0.427-0.021,0.601c-0.14,0.173-0.377,0.233-0.583,0.146
		c-5.057-2.139-9.814-1.844-15.119,0.898C73.667,131.77,73.588,131.787,73.509,131.787 M72.897,128.82l0.845,1.79
		c4.389-2.166,8.494-2.71,12.649-1.663c0.305,0.077,0.418-0.137,0.15-0.313c-1.566-1.023-3.569-1.568-5.864-1.568
		C78.236,127.066,75.557,127.671,72.897,128.82"/>
</g>
</svg>
