<?xml version="1.0" encoding="utf-8"?>
<!-- Generator: Adobe Illustrator 15.0.0, SVG Export Plug-In . SVG Version: 6.00 Build 0)  -->
<!DOCTYPE svg PUBLIC "-//W3C//DTD SVG 1.1//EN" "http://www.w3.org/Graphics/SVG/1.1/DTD/svg11.dtd">
<svg version="1.1" class="speech" xmlns="http://www.w3.org/2000/svg" xmlns:xlink="http://www.w3.org/1999/xlink" x="0px" y="0px"
	 width="300px" height="300px" viewBox="0 0 300 300" enable-background="new 0 0 300 300" xml:space="preserve">
<g id="g3" transform="matrix(0.9486962,0,0,0.9486962,2.4834364,1.8361818)">
	<path id="path5" fill="#BCBEC0" d="M283.137,45.401c14.464,0,26.189,8.162,26.189,18.229S297.601,81.86,283.137,81.86
		c-4.535,0-8.799-0.803-12.519-2.214c-7.341,2.763-17.363,7.983-17.363,7.983s6.535-3.7,9.229-8.192
		c0.689-1.149,1.091-2.352,1.323-3.508c-4.26-3.241-6.861-7.559-6.861-12.298C256.946,53.563,268.673,45.401,283.137,45.401
		 M283.137,46.854c-13.641,0-24.739,7.526-24.739,16.777c0,4.1,2.233,8.057,6.287,11.142l0.723,0.551l-0.178,0.889
		c-0.29,1.46-0.796,2.796-1.501,3.971c-0.222,0.371-0.468,0.737-0.733,1.095c2.372-1.078,4.857-2.143,7.11-2.992l0.514-0.194
		l0.514,0.195c3.653,1.387,7.804,2.119,12.004,2.119c13.639,0,24.738-7.526,24.738-16.777
		C307.875,54.378,296.777,46.854,283.137,46.854L283.137,46.854z"/>
</g>
<ellipse fill="#BCBEC0" cx="271.249" cy="62.375" rx="23.833" ry="16.375"/>
<polygon fill="#BCBEC0" points="284.86,67.956 251.609,79.409 266.481,47.54 "/>
</svg>
